PathFileType	4	(X/Y/Z)	/Users/itak/Documents/Research/Walk-IL/dataset/trc/00104_00007.trc
DataRate	CameraRate	NumFrames	NumMarkers	Units	OrigDataRate	OrigDataStartFrame	OrigNumFrames
100.000000	100.000000	4	53	mm	100.000000	226	604
Frame#	Time	RPSI			LPSI			L3			STRN			T10			C7			CLAV			RBAK			LBAK			LSHO			LUPA			LAEL			LAOL			LWTS			LWPS			LFRA			LIFD			LHPS			LHTS			RSHO			RUPA			RAEL			RAOL			RWTS			RWPS			RFRA			RIFD			RHTS			RHPS			RBHD			LFHD			RFHD			LBHD			LHIP			RHIP			RASI			LASI			LKNE			LTHI			LANK			LTIP			LTOE			LMT1			LMT5			LHEE			RKNE			RTHI			RANK			RTIP			RTOE			RMT1			RMT5			RHEE			
		X1	Y1	Z1	X2	Y2	Z2	X3	Y3	Z3	X4	Y4	Z4	X5	Y5	Z5	X6	Y6	Z6	X7	Y7	Z7	X8	Y8	Z8	X9	Y9	Z9	X10	Y10	Z10	X11	Y11	Z11	X12	Y12	Z12	X13	Y13	Z13	X14	Y14	Z14	X15	Y15	Z15	X16	Y16	Z16	X17	Y17	Z17	X18	Y18	Z18	X19	Y19	Z19	X20	Y20	Z20	X21	Y21	Z21	X22	Y22	Z22	X23	Y23	Z23	X24	Y24	Z24	X25	Y25	Z25	X26	Y26	Z26	X27	Y27	Z27	X28	Y28	Z28	X29	Y29	Z29	X30	Y30	Z30	X31	Y31	Z31	X32	Y32	Z32	X33	Y33	Z33	X34	Y34	Z34	X35	Y35	Z35	X36	Y36	Z36	X37	Y37	Z37	X38	Y38	Z38	X39	Y39	Z39	X40	Y40	Z40	X41	Y41	Z41	X42	Y42	Z42	X43	Y43	Z43	X44	Y44	Z44	X45	Y45	Z45	X46	Y46	Z46	X47	Y47	Z47	X48	Y48	Z48	X49	Y49	Z49	X50	Y50	Z50	X51	Y51	Z51	X52	Y52	Z52	X53	Y53	Z53	

227	2.26	-1583.158813476562	1115.987915039062	-262.9954833984375	-1575.683227539062	1127.317504882812	-398.0695495605469	-1584.454467773438	1162.263549804688	-330.63720703125	-1340.958984375	1340.15087890625	-322.7247619628906	-1598.506469726562	1314.684814453125	-322.3092956542969	-1532.054443359375	1602.325805664062	-342.2136535644531	-1362.466064453125	1477.859130859375	-331.8106994628906	-1605.478149414062	1428.158935546875	-248.2677612304688	-1541.677978515625	1581.621826171875	-443.5699768066406	-1457.542358398438	1556.338623046875	-512.61669921875	-1497.72412109375	1427.63818359375	-578.6533813476562	-1526.530517578125	1209.676513671875	-593.5762329101562	-1589.661010742188	1211.94775390625	-532.593994140625	-1488.194702148438	934.7012939453125	-550.2822875976562	-1574.302612304688	930.2266845703125	-573.9393310546875	-1537.12451171875	1092.9072265625	-596.3212280273438	-1528.414184570312	745.948974609375	-521.4131469726562	-1565.604370117188	850.094970703125	-573.4551391601562	-1497.068603515625	843.0811157226562	-558.7645263671875	-1476.490600585938	1583.858032226562	-161.3865356445312	-1497.918334960938	1515.522705078125	-94.17319488525391	-1527.077270507812	1222.927368164062	-55.45660018920898	-1539.981201171875	1217.7861328125	-151.9090270996094	-1381.3330078125	981.0509643554688	-66.98900604248047	-1454.609985351562	963.352783203125	-31.80775833129883	-1503.435913085938	1149.397827148438	-38.29663467407227	-1353.635864257812	786.6774291992188	-81.32215118408203	-1349.472045898438	873.2493286132812	-60.09767532348633	-1416.699829101562	864.38427734375	-26.31585311889648	-1488.271240234375	1764.1728515625	-267.4657897949219	-1332.612060546875	1827.897216796875	-410.5919494628906	-1326.328247070312	1837.34619140625	-281.1458435058594	-1501.61083984375	1757.9248046875	-402.1378784179688	-1475.021240234375	1043.59765625	-507.8754577636719	-1470.386962890625	1006.26123046875	-143.0326232910156	-1381.887939453125	1078.771728515625	-187.6959838867188	-1372.075927734375	1095.294555664062	-452.2174377441406	-1349.4013671875	547.3834838867188	-463.4501037597656	-1404.523193359375	684.61181640625	-499.3287658691406	-1367.152587890625	32.83575057983398	-447.325927734375	-1395.240234375	285.7314453125	-488.0330505371094	-1142.275512695312	48.34103012084961	-385.5302734375	-1220.681518554688	48.24504852294922	-351.525390625	-1243.225952148438	35.71882247924805	-466.5201721191406	-1437.220703125	34.84146881103516	-386.4713439941406	-1502.005493164062	510.0906372070312	-184.6033172607422	-1460.743896484375	790.9042358398438	-160.0873413085938	-1874.708740234375	124.7197952270508	-176.5907440185547	-1592.657958984375	401.2281799316406	-167.4295043945312	-1686.123779296875	40.73175811767578	-243.08154296875	-1739.958740234375	46.16929244995117	-285.9196166992188	-1768.841918945312	45.91363906860352	-168.3605194091797	-1917.089233398438	171.1455993652344	-220.0901336669922	
228	2.27	-1574.825561523438	1116.167236328125	-264.8260498046875	-1566.701782226562	1127.8193359375	-399.8484802246094	-1575.616577148438	1162.659912109375	-332.5726318359375	-1332.480224609375	1341.139282226562	-323.8761596679688	-1590.272216796875	1315.11572265625	-325.0347595214844	-1524.137939453125	1602.851928710938	-344.4755554199219	-1354.1689453125	1478.869018554688	-333.0185852050781	-1597.6025390625	1428.4619140625	-251.0845489501953	-1533.077026367188	1582.219116210938	-445.8902893066406	-1448.427124023438	1557.3095703125	-514.3898315429688	-1487.74365234375	1428.568359375	-580.906982421875	-1515.630615234375	1210.45068359375	-596.1485595703125	-1578.90966796875	1212.213623046875	-535.2782592773438	-1474.418579101562	936.003662109375	-553.1105346679688	-1560.489379882812	930.4817504882812	-576.5655517578125	-1525.183471679688	1093.55126953125	-599.0062866210938	-1512.014038085938	746.6990966796875	-524.2545776367188	-1550.725708007812	850.4242553710938	-576.1109008789062	-1482.095825195312	844.2915649414062	-561.6213989257812	-1469.64404296875	1584.509399414062	-163.3766632080078	-1491.408203125	1516.20654296875	-96.30685424804688	-1521.083618164062	1223.788940429688	-57.50435256958008	-1533.6572265625	1218.66455078125	-154.0514678955078	-1376.274291992188	981.421142578125	-68.39304351806641	-1449.580932617188	963.9795532226562	-33.45380783081055	-1497.719360351562	1150.228149414062	-40.22694778442383	-1349.132934570312	787.0005493164062	-83.14247894287109	-1344.755737304688	873.491455078125	-61.66845703125	-1412.0126953125	864.8015747070312	-28.08798408508301	-1480.82958984375	1765.034912109375	-269.0567321777344	-1324.931030273438	1828.861694335938	-411.8244018554688	-1318.913818359375	1838.216796875	-282.353271484375	-1493.918579101562	1758.884887695312	-403.7894897460938	-1465.350341796875	1044.66552734375	-509.6790161132812	-1461.873168945312	1006.515625	-144.9634552001953	-1373.642211914062	1079.642822265625	-189.2615814208984	-1362.929077148438	1095.971313476562	-453.6737060546875	-1345.025268554688	546.8657836914062	-464.3163452148438	-1398.598999023438	684.6437377929688	-500.6429138183594	-1366.8701171875	32.92992401123047	-447.2862243652344	-1392.710327148438	285.5495300292969	-488.7926025390625	-1141.9677734375	46.97853088378906	-385.2519836425781	-1220.470703125	47.51340484619141	-351.3101806640625	-1242.923095703125	35.48331451416016	-466.4905700683594	-1437.093627929688	34.97942733764648	-386.5375671386719	-1483.2705078125	509.4374084472656	-185.8370361328125	-1448.393798828125	791.0991821289062	-161.6112823486328	-1864.470581054688	132.3230133056641	-175.3560028076172	-1574.917846679688	401.5801086425781	-168.4908905029297	-1680.59814453125	41.97128677368164	-241.9745788574219	-1733.807495117188	48.54594421386719	-285.720947265625	-1761.98388671875	48.89983749389648	-167.9428100585938	-1904.953247070312	180.2998962402344	-218.7001037597656	
229	2.28	-1566.705810546875	1116.061157226562	-266.4856567382812	-1557.901489257812	1128.116333007812	-401.4417419433594	-1566.917236328125	1162.859375	-334.318603515625	-1324.139282226562	1341.863891601562	-324.9186401367188	-1582.265502929688	1315.412109375	-327.7122497558594	-1516.20751953125	1603.204223632812	-346.7125549316406	-1345.994140625	1479.592407226562	-334.14697265625	-1589.868286132812	1428.606689453125	-253.9053497314453	-1524.446411132812	1582.614990234375	-448.2044067382812	-1439.268188476562	1557.969604492188	-516.0999755859375	-1477.688598632812	1429.194580078125	-583.1148681640625	-1504.604858398438	1210.903686523438	-598.8095703125	-1568.09228515625	1212.116821289062	-538.143310546875	-1460.320556640625	937.0778198242188	-555.9612426757812	-1546.3076171875	930.4136962890625	-579.309814453125	-1512.989624023438	1093.884155273438	-601.7776489257812	-1495.037353515625	747.2124633789062	-527.2208251953125	-1535.377563476562	850.460205078125	-578.9116821289062	-1466.673217773438	845.3115234375	-564.5482177734375	-1462.862548828125	1584.907958984375	-165.2960357666016	-1485.01318359375	1516.59912109375	-98.40001678466797	-1515.209350585938	1224.338012695312	-59.57370376586914	-1527.408569335938	1219.223876953125	-156.2020416259766	-1371.279541015625	981.53076171875	-69.82919311523438	-1444.595825195312	964.3442993164062	-35.07978820800781	-1492.110473632812	1150.757690429688	-42.16448593139648	-1344.715087890625	787.0501708984375	-84.89234161376953	-1340.107177734375	873.4619140625	-63.24111175537109	-1407.35791015625	864.9848022460938	-29.794677734375	-1473.400146484375	1765.616455078125	-270.5977478027344	-1317.266967773438	1829.628295898438	-412.9783325195312	-1311.53564453125	1838.868896484375	-283.4835510253906	-1486.217529296875	1759.590087890625	-405.3838500976562	-1456.000122070312	1045.541137695312	-511.3304748535156	-1453.455200195312	1006.496398925781	-146.7257232666016	-1365.506713867188	1080.260131835938	-190.7055358886719	-1353.950073242188	1096.435913085938	-455.0487060546875	-1340.802734375	546.2855224609375	-465.1929626464844	-1392.840576171875	684.615478515625	-501.9490661621094	-1366.627563476562	33.00189590454102	-447.2466430664062	-1390.34912109375	285.3479614257812	-489.5534973144531	-1141.678588867188	45.66889572143555	-385.0876159667969	-1220.239990234375	46.81588363647461	-351.1885986328125	-1242.672241210938	35.20032501220703	-466.5498657226562	-1436.972290039062	35.12739944458008	-386.5777282714844	-1464.290893554688	508.8099670410156	-187.1895141601562	-1436.023315429688	791.1572265625	-163.0326385498047	-1852.7880859375	139.3573303222656	-174.2177124023438	-1556.703491210938	401.8157043457031	-169.7261199951172	-1672.587890625	43.64569091796875	-240.9710388183594	-1725.462646484375	51.33816528320312	-285.4075317382812	-1752.991455078125	52.4620361328125	-167.4205474853516	-1891.804931640625	188.4056854248047	-217.4655914306641	
230	2.29	-1558.7734375	1115.73974609375	-267.9589538574219	-1549.293823242188	1128.25830078125	-402.8418884277344	-1558.380981445312	1162.9091796875	-335.868896484375	-1315.950073242188	1342.376220703125	-325.8570861816406	-1574.471801757812	1315.625244140625	-330.2798767089844	-1508.26611328125	1603.432861328125	-348.8936157226562	-1337.93994140625	1480.08544921875	-335.1952819824219	-1582.27001953125	1428.650268554688	-256.6818542480469	-1515.811279296875	1582.8505859375	-450.4797668457031	-1430.104248046875	1558.353637695312	-517.7269897460938	-1467.588623046875	1429.542114257812	-585.2393188476562	-1493.397827148438	1211.056762695312	-601.5342407226562	-1557.172729492188	1211.6708984375	-541.19287109375	-1445.910278320312	937.9339599609375	-558.7865600585938	-1531.747192382812	930.0564575195312	-582.1937866210938	-1500.490356445312	1093.934204101562	-604.6146240234375	-1477.584594726562	747.518798828125	-530.3017578125	-1519.57568359375	850.2399291992188	-581.8755493164062	-1450.838256835938	846.153564453125	-567.5103759765625	-1456.1259765625	1585.10546875	-167.1194000244141	-1478.70556640625	1516.74853515625	-100.4271087646484	-1509.467407226562	1224.615966796875	-61.70180130004883	-1521.192749023438	1219.517700195312	-158.4001922607422	-1366.355590820312	981.4113159179688	-71.27124786376953	-1439.701538085938	964.4789428710938	-36.72253799438477	-1486.634033203125	1151.022094726562	-44.14106369018555	-1340.370361328125	786.8594970703125	-86.48957824707031	-1335.534912109375	873.2034912109375	-64.74263763427734	-1402.780029296875	864.9713745117188	-31.42795562744141	-1465.965698242188	1765.966064453125	-272.0786743164062	-1309.610473632812	1830.240234375	-414.0588684082031	-1304.176635742188	1839.35888671875	-284.5418090820312	-1478.496337890625	1760.072875976562	-406.9114379882812	-1447.111694335938	1046.202514648438	-512.7807006835938	-1445.100341796875	1006.274597167969	-148.310791015625	-1357.449096679688	1080.67333984375	-192.0442504882812	-1345.15380859375	1096.7568359375	-456.3597717285156	-1336.7197265625	545.6875610351562	-466.1135559082031	-1387.234741210938	684.56884765625	-503.2195434570312	-1366.434204101562	33.04236221313477	-447.2236328125	-1388.158447265625	285.16015625	-490.3397216796875	-1141.42041015625	44.48699569702148	-385.0336608886719	-1220.01025390625	46.20309448242188	-351.1610412597656	-1242.474731445312	34.88881683349609	-466.6968688964844	-1436.865966796875	35.27773666381836	-386.6099243164062	-1445.165893554688	508.2983703613281	-188.6635284423828	-1423.642333984375	791.1563110351562	-164.3824005126953	-1839.597412109375	145.6273651123047	-173.2625427246094	-1538.156005859375	402.0226440429688	-171.1227416992188	-1661.819458007812	45.74644470214844	-240.0938262939453	-1714.660766601562	54.46208953857422	-284.9731750488281	-1741.62939453125	56.52689743041992	-166.7921142578125	-1877.698974609375	195.235107421875	-216.4863433837891	
